# xmcd
#
# Track frame offsets:
#	150
#	19260
#	36992
#	56744
#	77959
#	102861
#	122176
#	142611
#	162679
#	182852
#	204699
#	224715
#	241260
#	254553
#
# Disc length: 3652 seconds
#
# Revision: 4
# Processed by: cddbd v1.5.2PL0 Copyright (c) Steve Scherf et al.
# Submitted via: EasyCDDAExtractor 15.3.0.1
#
DISCID=d70e420e
DTITLE=Cristian - Canciones De Amor
DYEAR=2012
DGENRE=Latin
TTITLE0=Te Buscaria
TTITLE1=Lo Mejor De Mi
TTITLE2=Cuando Me Miras Asi
TTITLE3=Volver A Amar
TTITLE4=Despues De Ti... Que
TTITLE5=Yo Queria
TTITLE6=Soledad
TTITLE7=Lloran Las Rosas
TTITLE8=Cupido
TTITLE9=Si Yo Fuera El
TTITLE10=Llorar Por Dentro
TTITLE11=Una Cancion Para Ti
TTITLE12=Madrigal
TTITLE13=Tu Vida Con La Mia
EXTD=
EXTT0=
EXTT1=
EXTT2=
EXTT3=
EXTT4=
EXTT5=
EXTT6=
EXTT7=
EXTT8=
EXTT9=
EXTT10=
EXTT11=
EXTT12=
EXTT13=
PLAYORDER=
